<?xml version="1.0" encoding="UTF-8" standalone="no"?>
<!-- Created with Inkscape (http://www.inkscape.org/) -->

<svg
   xmlns:dc="http://purl.org/dc/elements/1.1/"
   xmlns:cc="http://creativecommons.org/ns#"
   xmlns:rdf="http://www.w3.org/1999/02/22-rdf-syntax-ns#"
   xmlns:svg="http://www.w3.org/2000/svg"
   xmlns="http://www.w3.org/2000/svg"
   xmlns:sodipodi="http://sodipodi.sourceforge.net/DTD/sodipodi-0.dtd"
   xmlns:inkscape="http://www.inkscape.org/namespaces/inkscape"
   width="210mm"
   height="297mm"
   viewBox="0 0 210 297"
   version="1.1"
   id="svg4569"
   inkscape:export-filename="/home/lider/Descargas/test.png"
   inkscape:export-xdpi="96"
   inkscape:export-ydpi="96"
   inkscape:version="0.92.5 (2060ec1f9f, 2020-04-08)"
   sodipodi:docname="dibujo.svg">
  <defs
     id="defs4563" />
  <sodipodi:namedview
     id="base"
     pagecolor="#ffffff"
     bordercolor="#666666"
     borderopacity="1.0"
     inkscape:pageopacity="0.0"
     inkscape:pageshadow="2"
     inkscape:zoom="1"
     inkscape:cx="328.40157"
     inkscape:cy="582.7645"
     inkscape:document-units="mm"
     inkscape:current-layer="layer1"
     showgrid="true"
     inkscape:window-width="1920"
     inkscape:window-height="1055"
     inkscape:window-x="0"
     inkscape:window-y="1080"
     inkscape:window-maximized="1">
    <inkscape:grid
       type="xygrid"
       id="grid5116" />
  </sodipodi:namedview>
  <metadata
     id="metadata4566">
    <rdf:RDF>
      <cc:Work
         rdf:about="">
        <dc:format>image/svg+xml</dc:format>
        <dc:type
           rdf:resource="http://purl.org/dc/dcmitype/StillImage" />
        <dc:title />
      </cc:Work>
    </rdf:RDF>
  </metadata>
  <g
     inkscape:label="Capa 1"
     inkscape:groupmode="layer"
     id="layer1">
    <circle
       style="fill:#00ac98;fill-opacity:1;stroke:#feffff;stroke-width:5;stroke-linejoin:bevel;stroke-miterlimit:4;stroke-dasharray:none;stroke-opacity:1"
       id="path4571"
       cx="103.75446"
       cy="141.2738"
       r="100"
       inkscape:export-xdpi="96"
       inkscape:export-ydpi="96" />
    <path
       style="fill:#00ac98;fill-opacity:1;stroke:#feffff;stroke-width:9.54474831;stroke-linejoin:bevel;stroke-miterlimit:4;stroke-dasharray:none;stroke-opacity:1"
       d="M 379.94298,902.02609 C 289.4725,898.91971 203.01828,862.5886 138.01144,800.35794 100.62715,764.57018 71.783329,722.56402 52.164508,675.33633 50.433547,671.16945 48.531767,666.4533 47.93833,664.856 l -1.078978,-2.90419 H 392.10593 737.35252 l -0.35072,1.13642 c -0.74787,2.42305 -5.3381,13.60531 -8.51538,20.74407 -29.14876,65.49203 -77.57038,121.7716 -137.95245,160.33965 -62.69528,40.04555 -136.74827,60.38959 -210.59099,57.85414 z"
       id="path5122"
       inkscape:connector-curvature="0"
       transform="scale(0.26458333)" />
    <path
       style="fill:#000000;fill-opacity:1;stroke:none;stroke-width:3.6070857;stroke-linejoin:bevel;stroke-miterlimit:4;stroke-dasharray:none;stroke-opacity:1"
       d="m 98.271096,237.31763 c -12.41941,-0.96036 -22.459962,-3.3436 -33.033303,-7.84088 -11.195012,-4.76168 -21.214906,-11.50347 -29.960922,-20.15896 -3.872715,-3.83259 -6.246736,-6.52745 -9.29231,-10.54804 -4.730624,-6.24508 -8.38798,-12.48882 -11.518921,-19.66477 L 13.263621,176.35 103.88792,176.3022 c 49.84339,-0.0263 90.65246,-0.0198 90.68686,0.0143 0.0344,0.0341 -0.40793,1.14237 -0.98293,2.46287 -10.91392,25.06382 -31.503,44.15666 -57.35201,53.1842 -7.12215,2.48735 -14.4742,4.12488 -22.53231,5.01863 -2.45928,0.27279 -13.22198,0.5066 -15.436434,0.33535 z"
       id="path5130"
       inkscape:connector-curvature="0" />
    <flowRoot
       xml:space="preserve"
       id="flowRoot6918"
       style="fill:black;stroke:none;stroke-opacity:1;stroke-width:1px;stroke-linejoin:miter;stroke-linecap:butt;fill-opacity:1;font-family:sans-serif;font-style:normal;font-weight:normal;font-size:40px;line-height:125%;letter-spacing:0px;word-spacing:0px"><flowRegion
         id="flowRegion6920"><rect
           id="rect6922"
           width="460"
           height="80"
           x="120"
           y="682.51971" /></flowRegion><flowPara
         id="flowPara6924" /></flowRoot>    <flowRoot
       xml:space="preserve"
       id="flowRoot6926"
       style="fill:black;stroke:none;stroke-opacity:1;stroke-width:1px;stroke-linejoin:miter;stroke-linecap:butt;fill-opacity:1;font-family:sans-serif;font-style:normal;font-weight:normal;font-size:40px;line-height:125%;letter-spacing:0px;word-spacing:0px"><flowRegion
         id="flowRegion6928"><rect
           id="rect6930"
           width="600"
           height="90"
           x="90"
           y="662.51971" /></flowRegion><flowPara
         id="flowPara6932" /></flowRoot>    <path
       style="fill:none;fill-opacity:1;fill-rule:evenodd;stroke:#fffeff;stroke-width:4.88032436;stroke-linecap:butt;stroke-linejoin:miter;stroke-miterlimit:4;stroke-dasharray:none;stroke-opacity:1"
       d="m 10.583333,172.64583 c 186.531247,0 186.531247,0 186.531247,0"
       id="path5120"
       inkscape:connector-curvature="0"
       inkscape:export-xdpi="96"
       inkscape:export-ydpi="96" />
    <path
       style="fill:#000000;stroke-width:0.13696292"
       d="m 28.386417,169.45057 c -0.269801,-0.22079 -0.459588,-0.53463 -0.513356,-0.84891 -0.09654,-0.56428 -0.139526,-0.57441 -1.627533,-0.38333 -0.69696,0.0895 -1.040358,0.0729 -1.60353,-0.0776 -0.631621,-0.16873 -0.76038,-0.26634 -1.08531,-0.82278 -1.06546,-1.8246 -1.626507,-5.22381 -1.857044,-11.25127 l -0.105524,-2.75895 h -3.147487 -3.147488 l -6.43e-4,-0.3335 c -8.19e-4,-0.42356 -0.316995,-3.7154 -0.36013,-3.74922 -0.01773,-0.0139 -1.595576,-0.19586 -3.506318,-0.40436 -1.910741,-0.2085 -3.489085,-0.39087 -3.507431,-0.40525 -0.01835,-0.0144 13.637121,-1.93289 30.345481,-4.26336 16.70836,-2.33046 30.357444,-4.25398 30.331293,-4.27448 -0.02613,-0.0205 -13.300191,0.92014 -29.497872,2.09032 -16.197681,1.17019 -29.535602,2.11296 -29.639826,2.09505 -0.104224,-0.0179 13.146125,-2.65204 29.445216,-5.85364 16.299093,-3.20159 29.54018,-5.83601 29.424634,-5.85425 -0.11554,-0.0182 -12.423444,1.38772 -27.350895,3.12436 -14.927451,1.73664 -27.204177,3.14097 -27.281615,3.12074 -0.07744,-0.0202 12.265548,-3.06135 27.428857,-6.75801 15.163307,-3.69667 27.509204,-6.73701 27.435319,-6.75632 -0.07388,-0.0193 -12.275175,1.95827 -27.113988,4.39463 -14.838811,2.43635 -27.040468,4.41384 -27.11479,4.39442 -0.07432,-0.0194 1.591039,-0.53144 3.700803,-1.13782 2.109764,-0.60638 14.434571,-4.14746 27.38846,-7.86908 12.953885,-3.72162 23.532409,-6.78235 23.507831,-6.80162 -0.02461,-0.0193 -12.189387,2.47149 -27.032899,5.53503 -14.843513,3.06353 -27.046954,5.5554 -27.118759,5.53747 -0.07181,-0.0179 12.283522,-4.25619 27.456281,-9.41837 15.172758,-5.16218 27.651551,-9.42967 27.730645,-9.48333 0.07909,-0.0536 -2.565986,0.60965 -5.87796,1.47398 -17.904628,4.67261 -49.008982,12.72508 -49.044809,12.69699 -0.02279,-0.0179 12.344123,-4.80208 27.482023,-10.63159 15.13791,-5.82951 27.502103,-10.61586 27.475994,-10.63633 -0.02613,-0.0205 -12.25561,3.67087 -27.176679,8.20299 -14.921064,4.53211 -27.151576,8.22267 -27.178913,8.20123 -0.02734,-0.0214 12.186006,-5.34773 27.140762,-11.83622 14.954753,-6.48848 27.260074,-11.847447 27.345149,-11.908807 0.08508,-0.0614 -0.158551,-0.006 -0.54139,0.12293 -0.508172,0.17119 -41.078333,14.437747 -52.82434,18.575757 -0.59553,0.2098 -1.013175,0.33082 -0.928099,0.26895 0.08508,-0.0619 12.440402,-6.07668 27.456281,-13.3662 15.01588,-7.289527 27.371204,-13.30589 27.45628,-13.36969 0.236167,-0.17714 0.439238,-0.25995 -26.837547,10.945323 -28.378882,11.658007 -26.741405,10.990147 -26.528182,10.819867 0.467403,-0.37325 58.616645,-29.014792 58.796915,-28.960556 0.181884,0.05472 0.214752,2.830698 0.214752,18.138039 v 18.073417 h 0.913665 0.913666 l 0.08804,-1.12177 c 0.04841,-0.61697 0.161007,-5.92416 0.250198,-11.79376 0.08919,-5.869587 0.201779,-11.176787 0.250198,-11.793757 l 0.08804,-1.12177 h 0.836324 0.836319 v -6.727704 c 0,-6.510047 -0.01,-6.740545 -0.308784,-7.124765 -0.196184,-0.252268 -0.309,-0.611557 -0.309369,-0.985239 -4.61e-4,-0.507507 0.07155,-0.644721 0.525343,-1.0005 1.107493,-0.868277 2.287171,-0.446796 2.905855,1.038221 0.264463,0.634773 0.343949,1.183495 0.398384,2.750125 l 0.068,1.957126 0.564524,0.06661 c 0.310491,0.03662 12.397797,1.112886 26.860671,2.391655 14.46289,1.278773 26.33096,2.350843 26.3735,2.382373 0.0426,0.03154 0.11215,2.712765 0.15469,5.958298 l 0.0773,5.90095 0.46405,0.0777 c 0.25523,0.0427 0.69027,0.0842 0.96677,0.0921 l 0.50272,0.0143 v -7.27342 c 0,-7.055442 -0.009,-7.285334 -0.30879,-7.670497 -0.19618,-0.252269 -0.309,-0.611558 -0.30937,-0.98524 -4.6e-4,-0.507507 0.0716,-0.644719 0.52535,-1.000498 1.07517,-0.842941 2.29294,-0.415419 2.9101,1.021651 0.33637,0.783216 0.34928,0.985304 0.39665,6.209391 l 0.049,5.399833 0.8048,0.17954 0.8048,0.17954 0.042,2.25284 0.042,2.25284 1.7545,0.45247 c 2.07604,0.5354 3.93729,1.328197 5.16339,2.199377 0.79442,0.56447 1.77237,1.63308 1.49451,1.63308 -0.0596,0 -1.19516,-0.16285 -2.5235,-0.3619 -6.45969,-0.96795 -16.54701,-1.84565 -27.16449,-2.36358 -8.75967,-0.427307 -19.18775,-0.722807 -22.73844,-0.644347 -2.152444,0.0476 -2.454504,0.0842 -4.176448,0.50654 -3.20265,0.785487 -5.939353,1.631067 -8.700928,2.688377 l -2.668291,1.02158 v 18.31083 c 0,20.39508 -0.07073,19.05932 1.030896,19.46917 0.422506,0.15718 0.754067,0.18278 1.496137,0.1155 0.774687,-0.0702 3.744618,-0.61423 5.311586,-0.97292 l 0.33647,-0.077 -0.29682,0.891 c -1.111601,3.33682 -2.082057,8.97729 -2.398534,13.94071 l -0.10521,1.65009 0.964054,0.0855 c 0.53023,0.047 0.98224,0.0685 1.00447,0.0477 0.0222,-0.0208 0.12288,-1.2111 0.22366,-2.64514 0.8302,-11.81276 4.602514,-18.25277 10.498068,-17.92206 2.63909,0.14804 4.68385,1.92621 6.14107,5.34044 0.29891,0.70034 0.54348,1.38922 0.54348,1.53085 v 0.25751 l 12.02662,0.006 12.02662,0.006 1.54684,1.53564 c 1.11628,1.10822 1.5578,1.46944 1.58623,1.29778 0.0217,-0.13083 -0.0542,-1.02918 -0.16877,-1.99632 -0.11449,-0.96716 -0.18665,-1.77945 -0.16034,-1.80512 0.0263,-0.0257 8.62916,0.0985 19.11746,0.27589 10.4883,0.1774 19.78925,0.32119 20.66875,0.31952 l 1.5991,-0.003 -0.10922,-0.51541 c -0.28332,-1.3368 -0.78807,-1.59159 -3.24366,-1.6374 -6.40104,-0.1194 -37.59317,-0.5158 -40.56569,-0.51552 l -3.59639,3.4e-4 v -1.77045 c 0,-2.07679 -0.14373,-2.43797 -1.15517,-2.90268 l -0.65087,-0.29905 h -4.74291 -4.74292 v 2.42545 2.42545 h -0.70798 c -0.57625,0 -0.7921,-0.0659 -1.16012,-0.35449 l -0.45215,-0.35448 v -2.41318 c 0,-1.86438 -0.0547,-2.53899 -0.24043,-2.96637 -0.89247,-2.05354 -5.26163,-3.57426 -9.54139,-3.32097 -0.74546,0.0441 -1.35538,0.0517 -1.35538,0.017 0,-0.14179 1.91542,-0.80772 2.97005,-1.03258 2.27752,-0.48561 4.09338,-0.64868 7.23905,-0.65009 5.88042,-0.003 10.79169,0.87632 15.91168,2.84766 l 2.22222,0.85561 0.33006,-0.25852 c 0.42838,-0.33554 0.45911,-1.10454 0.2936,-7.34672 l -0.1254,-4.72964 -0.40165,-0.67748 c -0.50239,-0.84739 -1.34303,-1.51526 -2.3621,-1.87664 -0.56898,-0.20177 -3.84857,-0.70448 -11.84665,-1.8159 -10.72443,-1.49027 -11.1138,-1.53539 -12.83871,-1.48785 -1.63028,0.0449 -1.87576,0.0839 -2.93898,0.46629 -0.63807,0.22949 -1.7288,0.75586 -2.42385,1.16971 l -1.26373,0.75244 -0.0878,-0.87264 c -0.11944,-1.18705 -0.55915,-10.9289 -0.55119,-12.21163 0.007,-1.13622 0.1621,-1.46666 0.85662,-1.8256 0.39947,-0.20645 0.73985,-0.23435 2.85121,-0.23371 7.70645,0.002 21.89802,0.56845 30.54995,1.21863 6.33132,0.47578 15.80948,1.48246 17.21245,1.82814 0.64015,0.15773 1.36904,0.63469 1.67212,1.0942 0.12877,0.19522 0.82094,2.51787 1.53815,5.16144 0.71722,2.64357 1.35764,4.84543 1.42317,4.89302 0.0655,0.0476 4.60882,0.74988 10.09621,1.56064 5.48739,0.81075 10.19174,1.52726 10.4541,1.59223 0.79884,0.19784 1.68557,0.79539 2.12976,1.43524 0.51001,0.73467 0.54592,0.96537 1.12058,7.19842 0.23837,2.58552 0.47172,4.74951 0.51858,4.80887 0.0468,0.0593 0.78125,0.17296 1.63201,0.25246 3.37332,0.31522 6.71142,1.29074 7.86761,2.29923 1.13725,0.99196 1.21832,1.26945 1.37708,4.71352 0.15597,3.38341 0.10999,3.65051 -0.68397,3.9724 -0.37761,0.1531 -1.09742,0.16763 -4.77339,0.0964 l -4.32872,-0.0839 v 0.55771 c 0,0.30673 0.0576,0.58561 0.12796,0.6197 0.0704,0.0341 1.68875,0.0975 3.59638,0.14079 4.13547,0.0939 5.18085,0.23591 7.02615,0.95428 2.45905,0.9573 2.91228,1.40523 3.09231,3.05609 l 0.10742,0.98511 -1.05848,-0.0482 c -1.95523,-0.089 -24.5167,-0.6233 -42.90029,-1.01594 -14.35362,-0.30657 -37.68509,-0.2603 -39.25089,0.0779 -0.43657,0.0943 -0.43528,0.11922 0.0637,1.22117 l 0.41173,0.90929 0.55503,-0.0769 c 0.30527,-0.0423 6.48908,-0.10769 13.74179,-0.14534 l 13.18675,-0.0684 v 3.77918 3.77919 l 0.73474,-0.0369 0.73475,-0.0369 0.0409,-3.71459 0.0409,-3.71458 2.74342,0.0485 c 1.50888,0.0267 4.01375,0.0807 5.56639,0.11988 l 2.82297,0.0713 v 2.33728 2.33729 l 7.54081,0.0764 c 4.14744,0.042 8.81114,0.0898 10.36377,0.10615 l 2.82298,0.0297 v -2.23331 -2.23332 l 3.27328,0.0799 c 1.80031,0.0439 3.83633,0.0807 4.52448,0.0818 0.68818,9.1e-4 1.35562,0.0539 1.48323,0.1174 0.19662,0.0979 0.23203,0.60189 0.23203,3.30282 v 3.18728 l 0.71167,0.0362 0.71168,0.0362 0.0993,-0.8245 c 0.0546,-0.45348 0.0998,-1.93722 0.10042,-3.29721 l 0.002,-2.47272 2.28158,0.0765 c 1.25487,0.0421 3.70134,0.11248 5.43661,0.15644 l 3.15504,0.0799 -0.0948,1.70992 c -0.15906,2.87041 -0.8713,5.34937 -1.96338,6.83368 l -0.46846,0.63668 h -2.00774 c -1.97888,0 -2.00776,0.004 -2.00814,0.27286 -0.002,0.61444 -0.8313,2.65559 -1.55454,3.82101 -0.64846,1.04495 -1.01273,1.44601 -2.27682,2.50676 l -1.50483,1.26277 -6.66354,0.01 -6.66352,0.01 -0.68393,-0.36202 c -0.37615,-0.1991 -1.30564,-0.73118 -2.06554,-1.18241 -1.27303,-0.75592 -1.44021,-0.90616 -2.12734,-1.91184 -0.78108,-1.14316 -1.56835,-2.87174 -1.75366,-3.85041 l -0.10909,-0.57605 h -22.54951 -22.54925 l -0.3235,0.93987 c -0.91247,2.65102 -1.92445,4.6039 -3.07935,5.94236 l -0.86328,1.0005 h -7.90603 -7.905874 l -1.27008,-1.24305 c -1.043844,-1.02163 -1.377424,-1.45906 -1.872714,-2.45577 -0.33144,-0.667 -0.65012,-1.39009 -0.70817,-1.60686 l -0.10555,-0.39414 h -1.99859 c -1.099677,10e-6 -1.999042,0.0233 -1.999042,0.0519 0,0.44464 -0.405114,2.08003 -0.634136,2.55994 -0.432211,0.90568 -1.759905,1.86075 -3.495572,2.51452 l -1.36155,0.51285 -6.109988,0.0419 c -9.844363,0.0676 -11.758055,-0.18231 -14.061906,-1.83621 -0.540764,-0.38821 -1.062009,-1.35009 -1.27817,-2.35867 L 63.5,164.70833 h -7.615682 -7.615683 l -0.25187,0.67927 c -0.333222,0.89867 -0.954421,1.98763 -1.306721,2.29069 -0.155855,0.13408 -0.403495,0.43477 -0.550312,0.66822 -0.146817,0.23346 -0.552292,0.65639 -0.901059,0.93987 l -0.634119,0.5154 H 36.719512 28.81447 Z m -1.807438,-5.34343 c 0.364961,-0.52009 0.937064,-2.11347 0.93836,-2.61346 4.64e-4,-0.19823 -0.05121,-0.17607 -0.283092,0.12127 -0.679275,0.87105 -1.291924,0.83364 -1.859812,-0.11354 -0.635438,-1.05985 -0.821273,-1.96465 -0.910719,-4.43418 -0.08127,-2.24367 -0.09606,-2.33375 -0.288761,-1.75845 -0.958342,2.86107 -0.447458,7.99661 0.908037,9.12782 0.521051,0.43484 1.039821,0.32059 1.495987,-0.32946 z m 5.70098,0.32575 c 0.180921,-0.15099 0.430305,-0.46478 0.554186,-0.69732 0.262918,-0.49353 0.761881,-2.30825 0.657221,-2.39031 -0.0393,-0.0308 -0.181731,0.11115 -0.316497,0.31547 -0.728288,1.10415 -1.710981,0.56566 -2.309901,-1.26577 -0.359572,-1.09953 -0.608475,-3.25672 -0.523892,-4.54045 0.07304,-1.10858 0.06801,-1.13186 -0.133247,-0.61634 -0.639206,1.63731 -0.683467,5.64286 -0.08208,7.4281 0.631787,1.8755 1.333849,2.45124 2.154213,1.76662 z m 70.608761,-0.40245 c 0.7717,-0.39478 1.54959,-1.24673 2.1355,-2.33878 0.4865,-0.90679 1.15885,-2.77925 1.03329,-2.87768 -0.0378,-0.0296 -0.25016,0.16112 -0.47195,0.42388 -0.79374,0.94035 -1.88397,1.35452 -3.09619,1.17622 -1.78262,-0.26218 -3.494954,-2.82253 -4.124384,-6.16696 -0.199,-1.05734 -0.25148,-3.56757 -0.10331,-4.94134 l 0.0981,-0.90954 -0.39088,0.65337 c -1.755324,2.93411 -1.948534,8.20117 -0.43261,11.79363 1.27903,3.03105 3.302454,4.23593 5.352434,3.1872 z m -63.401796,-7.96371 c 0.307273,-0.89893 -0.01317,-3.94327 -0.602988,-5.72873 -0.198053,-0.59952 -0.342006,-1.10423 -0.319894,-1.12156 0.02211,-0.0173 0.265331,0.21425 0.540488,0.51464 1.221648,1.33368 2.454489,3.99418 2.739176,5.9112 l 0.103556,0.69732 h 5.648221 5.648223 l -0.09483,-2.03132 c -0.104209,-2.23225 -0.405324,-3.91811 -0.876261,-4.90594 l -0.306203,-0.64228 -0.900535,0.0399 c -1.589306,0.0703 -3.762227,-0.67816 -5.931906,-2.04334 -0.527865,-0.33213 -1.104964,-0.60354 -1.282443,-0.60314 -0.309957,9.2e-4 -7.688751,0.77271 -8.705833,0.91083 l -0.494301,0.0671 0.29956,0.39805 c 0.874741,1.16235 1.327449,2.98648 1.577013,6.35438 l 0.181973,2.45577 h 1.341856 c 1.260797,0 1.347491,-0.0165 1.435127,-0.27287 z M 189.47251,140.38012 v -1.6493 l -0.52592,-0.41233 -0.52593,-0.41233 -3.68919,-5e-5 -3.6892,-4e-5 0.12324,1.91009 c 0.0678,1.05054 0.15261,1.9783 0.18849,2.06168 0.05,0.11608 1.00853,0.15159 4.09189,0.15159 h 4.02662 z m -21.22179,-2.00815 c 0.026,-0.24406 -0.0567,-0.75569 -0.18372,-1.13697 l -0.23091,-0.69322 4.32151,0.0891 4.32152,0.0891 v -0.3122 c 0,-0.40701 -0.80615,-1.12141 -1.43856,-1.27484 -0.27224,-0.0661 -2.13365,-0.15699 -4.13648,-0.20209 l -3.6415,-0.082 -0.34159,-0.93423 c -0.18788,-0.51383 -0.34161,-1.007 -0.34161,-1.09593 0,-0.1332 0.86117,-0.14606 4.88735,-0.073 l 4.88732,0.0887 -0.10489,-0.28371 c -0.14315,-0.38716 -0.55754,-0.82687 -1.05203,-1.11631 -0.36006,-0.21076 -0.77897,-0.25376 -3.31613,-0.34045 -1.59721,-0.0546 -2.99945,-0.11311 -3.11607,-0.13008 -0.11662,-0.017 0.22546,-0.30373 0.76017,-0.63723 0.53472,-0.3335 1.2566,-0.7859 1.60419,-1.00534 l 0.63199,-0.39897 2.13483,0.0379 2.13482,0.0379 -0.0922,-0.3059 c -0.13087,-0.43389 -0.57312,-0.87603 -1.13372,-1.13343 -0.40795,-0.18731 -1.1631,-0.24712 -4.93369,-0.39075 -2.44861,-0.0933 -4.75546,-0.18475 -5.12633,-0.20329 l -0.67431,-0.0337 -0.54342,-1.0665 c -0.29888,-0.58658 -0.5175,-1.08636 -0.48581,-1.11063 0.0317,-0.0243 2.63308,0.0581 5.78088,0.18308 7.27629,0.28887 6.88341,0.28824 6.88341,0.011 0,-0.12353 -0.15662,-0.40529 -0.34804,-0.62613 -0.6647,-0.76686 -0.88592,-0.801 -6.99942,-1.08017 -3.06273,-0.13986 -5.74261,-0.25438 -5.95531,-0.25448 -0.32966,-1.2e-4 -0.44389,-0.11181 -0.7744,-0.75681 -0.37192,-0.72583 -0.41161,-0.75816 -0.97544,-0.79466 -0.58145,-0.0376 -0.59211,-0.0303 -0.9912,0.67761 l -0.40344,0.71564 -0.70934,-0.0434 c -2.22924,-0.13661 -13.96213,-0.64473 -14.88719,-0.64473 -1.29439,0 -1.96797,0.25707 -2.35678,0.89946 -0.40881,0.67542 -0.34386,0.77308 0.56359,0.84749 0.44665,0.0366 4.04884,0.17946 8.00486,0.31741 3.95602,0.13794 7.4851,0.28926 7.8424,0.33626 l 0.64962,0.0855 -0.55786,1.03115 -0.55787,1.03114 -6.97516,-0.26932 c -3.83634,-0.14813 -7.17176,-0.23856 -7.41203,-0.20094 -0.6313,0.0988 -1.46454,0.72281 -1.64341,1.23072 -0.0848,0.24089 -0.12571,0.46036 -0.0908,0.48771 0.0349,0.0274 1.99941,0.10617 4.36561,0.17514 l 4.30218,0.12542 0.61874,0.4298 c 0.3403,0.2364 1.06384,0.74731 1.60787,1.13536 l 0.98914,0.70555 -1.14382,-9.2e-4 c -0.62911,-4.6e-4 -2.82466,-0.0568 -4.87901,-0.12528 -4.16127,-0.13866 -4.68808,-0.0778 -5.31705,0.61477 -0.27928,0.30749 -0.58401,1.0679 -0.44146,1.10156 0.0319,0.008 3.06387,0.0767 6.73771,0.15358 3.67383,0.0769 6.71787,0.16981 6.76453,0.2064 0.0467,0.0366 -0.066,0.54576 -0.25049,1.13149 l -0.33535,1.06498 -2.33009,-0.0741 c -1.28154,-0.0407 -3.82665,-0.0869 -5.65578,-0.10262 -3.26296,-0.0281 -3.33521,-0.0232 -3.83074,0.25384 -0.54351,0.30392 -0.89924,0.74851 -0.98695,1.23348 l -0.0548,0.30318 6.08522,0.0816 c 3.34686,0.0449 6.1145,0.10461 6.15031,0.13268 0.0358,0.0281 -0.0401,0.2847 -0.16858,0.57029 -0.63809,1.41791 0.2082,1.75258 2.05949,0.81444 0.56789,-0.28779 1.51017,-0.73248 2.09395,-0.98822 l 1.06143,-0.46497 2.13615,0.0799 2.13616,0.08 2.13899,1.14783 c 1.80675,0.96954 2.22309,1.14359 2.68038,1.12049 0.50398,-0.0254 0.54466,-0.058 0.58856,-0.47108 z m -4.14079,-1.81109 c -1.82613,-0.99429 -3.363,-1.80781 -3.41527,-1.80781 -0.0523,0 -1.5513,0.68187 -3.33116,1.51528 -1.77987,0.83339 -3.28832,1.51555 -3.35213,1.5159 -0.17511,9.2e-4 -0.17929,0.0162 0.8134,-2.95847 0.50973,-1.52745 0.92679,-2.87368 0.92679,-2.99162 0,-0.1228 -0.90883,-0.8477 -2.1269,-1.69645 -2.90076,-2.02126 -3.59638,-2.52046 -3.59638,-2.58084 0,-0.0284 1.73372,-0.0916 3.85272,-0.14046 l 3.85273,-0.0889 1.12651,-2.19927 c 1.68868,-3.29678 1.69573,-3.30828 1.87569,-3.05616 0.0838,0.11742 0.76589,1.3943 1.51568,2.83751 l 1.3633,2.62402 3.60913,0.32263 c 1.98503,0.17745 3.77952,0.342 3.98777,0.36568 0.32777,0.0373 0.12226,0.20597 -1.52969,1.25576 -1.04958,0.66701 -2.3859,1.50562 -2.96958,1.8636 -0.58368,0.35798 -1.06126,0.69559 -1.06126,0.75023 0,0.13518 0.62398,2.09014 1.38334,4.33408 0.34514,1.01995 0.62755,1.87947 0.62755,1.91004 0,0.13972 -0.43794,-0.0791 -3.55224,-1.77478 z m -76.028121,0.17914 c -0.199815,-0.15665 -0.236208,-0.67539 -0.236208,-3.36706 0,-2.36496 0.04964,-3.22989 0.193354,-3.36884 0.262949,-0.25426 1.912359,-0.75227 2.202441,-0.665 0.200908,0.0605 0.233822,0.54674 0.233822,3.45494 0,2.56548 -0.04677,3.41242 -0.193354,3.4996 -0.106344,0.0633 -0.591716,0.23124 -1.078601,0.37328 -0.793857,0.23161 -0.909637,0.23915 -1.121454,0.0731 z m 7.374213,-2.37502 c -0.21479,-0.16839 -0.27033,-10.11285 -0.0579,-10.37509 0.1647,-0.20337 2.706374,-1.00028 3.190314,-1.00028 0.22085,0 0.45143,0.0995 0.54364,0.23457 0.19075,0.27945 0.22158,10.0525 0.0325,10.28605 -0.15995,0.1975 -2.699904,1.00028 -3.164834,1.00028 -0.19691,0 -0.44154,-0.0655 -0.54363,-0.14553 z m 1.591244,-18.07168 c -0.832064,-0.81928 -1.567014,-1.53733 -1.633214,-1.59568 -0.0665,-0.0586 -1.23339,0.19794 -2.60668,0.57306 -2.757618,0.75325 -3.105595,0.76953 -3.827432,0.17907 l -0.438267,-0.35851 -0.04426,-4.29071 c -0.05133,-4.97086 -0.05431,-4.95672 1.154346,-5.43505 2.402892,-0.95096 6.615633,-2.18648 7.118097,-2.08761 0.73905,0.14543 0.78366,0.34942 1.12809,5.15903 0.17912,2.50125 0.41906,5.61189 0.53319,6.91254 0.11414,1.30065 0.18986,2.38026 0.16826,2.39913 -0.0216,0.0189 -0.72005,-0.636 -1.5521,-1.45527 z"
       id="path7105"
       inkscape:connector-curvature="0" />
    <flowRoot
       xml:space="preserve"
       id="flowRoot6934"
       style="font-style:normal;font-weight:normal;font-size:40px;line-height:125%;font-family:sans-serif;letter-spacing:0px;word-spacing:0px;fill:#00ab98;fill-opacity:1;stroke:#fffff7;stroke-width:1px;stroke-linecap:butt;stroke-linejoin:miter;stroke-opacity:1"
       transform="matrix(0.26458333,0,0,0.26458333,-0.22371797,5.7933787)"><flowRegion
         id="flowRegion6936"
         style="fill:#00ab98;fill-opacity:1;stroke:#fffff7;stroke-opacity:1"><rect
           id="rect6938"
           width="620.84558"
           height="78.103745"
           x="80"
           y="672.51971"
           style="fill:#00ab98;fill-opacity:1;stroke:#fffff7;stroke-opacity:1" /></flowRegion><flowPara
         style="font-style:normal;font-variant:normal;font-weight:bold;font-stretch:normal;font-size:74.66666412px;font-family:sans-serif;-inkscape-font-specification:'sans-serif Bold';text-align:center;text-anchor:middle;fill:#00ab98;fill-opacity:1;stroke:#fffff7;stroke-opacity:1"
         id="flowPara830">GRUPO 22</flowPara></flowRoot>  </g>
</svg>
